# xmcd
#
# Track frame offsets:
#	150
#	39452
#	74122
#	114172
#	144495
#	176089
#	212303
#	237659
#	264538
#	294687
#	318300
#
# Disc length: 4652 seconds
#
# Revision: 0
# Processed by: cddbd v1.5.2PL0 Copyright (c) Steve Scherf et al.
# Submitted via: EasyCDDAExtractor 15.2.5.1
#
DISCID=a9122a0b
DTITLE=Orchestra Baobab - Pirates
DYEAR=1900
DGENRE=
TTITLE0=Utru Horas 192
TTITLE1=Coumba 192
TTITLE2=Ledi Ndieme M'bodj 192
TTITLE3=orchestra baobab - werente serigne (1)
TTITLE4=Autorail
TTITLE5=Soldadi 192
TTITLE6=Africa
TTITLE7=Boulmamine                    
TTITLE8=Doomou Baaye
TTITLE9=El fuego
TTITLE10=Orchestra Baobab - El Son De Llama
EXTD=
EXTT0=
EXTT1=
EXTT2=
EXTT3=
EXTT4=
EXTT5=
EXTT6=
EXTT7=
EXTT8=
EXTT9=
EXTT10=
PLAYORDER=
